<svg width="1195" height="1093" viewBox="0 0 1195 1093" fill="none" xmlns="http://www.w3.org/2000/svg">
<rect x="74" width="1046" height="747.143" fill="white"/>
<rect x="74" y="309.163" width="1046" height="783.212" fill="white"/>
<path d="M599.576 350.384H701.46H749.005V437.98H599.576V350.384Z" fill="#E4E2E7"/>
<path d="M443.344 350.386H599.577V494.662H378.01V350.386H443.344Z" fill="#24658F"/>
<rect x="378.01" y="360.689" width="41.2217" height="77.2906" fill="#CCD200"/>
<rect x="506.828" y="350.384" width="92.7488" height="87.5961" fill="#E4E2E7"/>
<rect x="378.01" y="489.507" width="30.9163" height="61.8325" fill="#E21749"/>
<rect x="702.631" y="350.384" width="103.054" height="87.5961" fill="black"/>
<rect x="805.685" y="350.384" width="25.7635" height="87.5961" fill="#CCD200"/>
<rect x="702.631" y="437.979" width="103.054" height="82.4434" fill="#9BA49F"/>
<rect x="532.591" y="489.507" width="61.8325" height="123.665" transform="rotate(90 532.591 489.507)" fill="#CCD200"/>
<rect x="599.576" y="437.979" width="103.054" height="113.36" fill="#8BBBDF"/>
<rect x="532.591" y="489.507" width="66.9852" height="61.8325" fill="#8BBBDF"/>
<rect x="805.685" y="520.423" width="25.7635" height="30.9163" fill="#E21749"/>
<rect x="805.685" y="437.979" width="25.7635" height="82.4434" fill="black"/>
<rect x="702.631" y="551.339" width="30.9163" height="103.054" transform="rotate(-90 702.631 551.339)" fill="black"/>
<rect x="625.34" y="427.675" width="41.2217" height="10.3054" fill="#CCD200"/>
<rect x="687.173" y="360.69" width="15.4581" height="15.4581" fill="#E21749"/>
<path d="M856.416 302.226L903.587 257.635V350.384H805.685L856.416 302.226Z" fill="#CCD200"/>
<path d="M935.861 287.362L903.587 257.635V319.468H970.572L935.861 287.362Z" fill="#24658F"/>
<path d="M903.587 319.468H970.572L1001.49 349.173V468.896H903.587V319.468Z" fill="#E4E2E7"/>
<path d="M845.453 350.384H903.586V510.118H821.143V393.53L821.143 350.384H845.453Z" fill="#24658F"/>
<rect x="843.808" y="412.719" width="61.3122" height="55.9023" fill="#E4E2E7"/>
<rect x="970.572" y="407.064" width="61.8325" height="61.8325" fill="black"/>
<rect x="996.538" y="272.075" width="28.5792" height="37.7246" fill="black"/>
<rect x="1032.4" y="407.064" width="15.4581" height="61.8325" fill="#CCD200"/>
<path d="M996.538 309.799H1025.12V372.779L1047.98 393.472V406.968H996.538V309.799Z" fill="#8BBBDF"/>
<rect x="970.572" y="468.896" width="61.8325" height="61.8325" fill="#9BA49F"/>
<rect x="903.587" y="468.896" width="66.9852" height="82.4434" fill="#8BBBDF"/>
<rect x="831.448" y="510.118" width="72.1379" height="41.2217" fill="#8BBBDF"/>
<rect x="1032.4" y="530.729" width="15.4581" height="20.6108" fill="#E21749"/>
<rect x="1032.4" y="468.896" width="15.4581" height="61.8325" fill="black"/>
<rect x="970.572" y="551.34" width="20.6108" height="61.8325" transform="rotate(-90 970.572 551.34)" fill="black"/>
<rect x="259.111" y="66.9854" width="71.7807" height="135.286" fill="black"/>
<path d="M259.111 202.274H330.891V427.751L388.316 501.836V550.152H259.111V202.274Z" fill="#8BBBDF"/>
<rect x="146.139" y="66.9868" width="71.7807" height="135.286" fill="black"/>
<path d="M146.138 202.274H217.919V427.751L275.344 501.836V550.152H146.138V202.274Z" fill="#8BBBDF"/>
<line x1="383.315" y1="546.188" x2="383.315" y2="355.537" stroke="black" stroke-width="10"/>
<line x1="779.921" y1="355.385" x2="378.01" y2="355.385" stroke="black" stroke-width="10"/>
<line x1="620.34" y1="489.508" x2="620.34" y2="376.148" stroke="black" stroke-width="10"/>
<line x1="671.867" y1="489.508" x2="671.867" y2="376.148" stroke="black" stroke-width="10"/>
<line x1="388.469" y1="345.232" x2="388.469" y2="304.01" stroke="black" stroke-width="10"/>
<line x1="831.449" y1="309.01" x2="393.468" y2="309.01" stroke="black" stroke-width="10"/>
<line x1="826.143" y1="304.01" x2="826.143" y2="551.34" stroke="black" stroke-width="10"/>
<line x1="831.448" y1="546.035" x2="146.138" y2="546.035" stroke="black" stroke-width="10"/>
<rect x="424.232" y="401.759" width="77.5961" height="31.2217" stroke="black" stroke-width="10"/>
<rect x="5" y="-5" width="118.818" height="51.8325" transform="matrix(1 0 0 -1 403.774 541.34)" stroke="black" stroke-width="10"/>
<rect x="444.996" y="324.621" width="15.4581" height="15.4581" fill="black"/>
<rect x="475.912" y="324.621" width="15.4581" height="15.4581" fill="black"/>
<rect x="506.828" y="324.621" width="15.4581" height="15.4581" fill="black"/>
<rect x="537.744" y="324.621" width="15.4581" height="15.4581" fill="black"/>
<rect x="568.66" y="324.621" width="15.4581" height="15.4581" fill="black"/>
<rect x="599.577" y="324.621" width="15.4581" height="15.4581" fill="black"/>
<rect x="630.493" y="324.621" width="15.4581" height="15.4581" fill="black"/>
<rect x="661.409" y="324.621" width="15.4581" height="15.4581" fill="black"/>
<rect x="692.325" y="324.621" width="15.4581" height="15.4581" fill="black"/>
<rect x="723.242" y="324.621" width="15.4581" height="15.4581" fill="black"/>
<rect x="496.522" y="247.331" width="15.4581" height="61.8325" fill="black"/>
<rect x="558.355" y="247.331" width="15.4581" height="61.8325" fill="black"/>
<rect x="620.188" y="247.331" width="15.4581" height="61.8325" fill="black"/>
<rect x="682.02" y="247.331" width="15.4581" height="61.8325" fill="black"/>
<rect x="754.158" y="324.621" width="15.4581" height="15.4581" fill="black"/>
<rect x="785.074" y="324.621" width="15.4581" height="15.4581" fill="black"/>
<path d="M381.945 949H369.945V838.656H369.008L322.32 948.344H311.164L264.476 838.656H263.633V949H251.539V813.719H266.258L316.226 931.469H317.351L367.133 813.719H381.945V949ZM500.13 936.719C491.88 946.031 480.693 950.688 466.568 950.688C452.443 950.688 441.255 946.031 433.005 936.719C424.818 927.344 420.724 914.594 420.724 898.469C420.724 882.344 424.818 869.625 433.005 860.312C441.255 851 452.443 846.344 466.568 846.344C480.693 846.344 491.88 851 500.13 860.312C508.38 869.625 512.505 882.344 512.505 898.469C512.505 914.594 508.38 927.344 500.13 936.719ZM442.193 928.656C448.068 935.906 456.193 939.531 466.568 939.531C476.943 939.531 485.068 935.906 490.943 928.656C496.818 921.344 499.755 911.281 499.755 898.469C499.755 885.656 496.818 875.625 490.943 868.375C485.068 861.062 476.943 857.406 466.568 857.406C456.193 857.406 448.068 861.062 442.193 868.375C436.318 875.625 433.38 885.656 433.38 898.469C433.38 911.281 436.318 921.344 442.193 928.656ZM549.596 949V848.031H561.315V866.219H562.534C565.221 859.906 569.346 855.031 574.909 851.594C580.471 848.094 587.221 846.344 595.159 846.344C606.409 846.344 615.096 849.594 621.221 856.094C627.409 862.531 630.503 871.625 630.503 883.375V949H618.221V886.469C618.221 867.094 609.44 857.406 591.878 857.406C582.94 857.406 575.69 860.312 570.128 866.125C564.628 871.875 561.878 879.5 561.878 889V949H549.596ZM746.25 936.719C738 946.031 726.812 950.688 712.688 950.688C698.562 950.688 687.375 946.031 679.125 936.719C670.938 927.344 666.844 914.594 666.844 898.469C666.844 882.344 670.938 869.625 679.125 860.312C687.375 851 698.562 846.344 712.688 846.344C726.812 846.344 738 851 746.25 860.312C754.5 869.625 758.625 882.344 758.625 898.469C758.625 914.594 754.5 927.344 746.25 936.719ZM688.312 928.656C694.188 935.906 702.312 939.531 712.688 939.531C723.062 939.531 731.188 935.906 737.062 928.656C742.938 921.344 745.875 911.281 745.875 898.469C745.875 885.656 742.938 875.625 737.062 868.375C731.188 861.062 723.062 857.406 712.688 857.406C702.312 857.406 694.188 861.062 688.312 868.375C682.438 875.625 679.5 885.656 679.5 898.469C679.5 911.281 682.438 921.344 688.312 928.656ZM796.654 949V807.812H808.935V949H796.654ZM852.776 949V848.031H865.057V949H852.776ZM865.339 822.906C863.526 824.656 861.37 825.531 858.87 825.531C856.37 825.531 854.214 824.625 852.401 822.812C850.651 821 849.776 818.844 849.776 816.344C849.776 813.844 850.651 811.719 852.401 809.969C854.214 808.156 856.37 807.25 858.87 807.25C861.37 807.25 863.526 808.156 865.339 809.969C867.151 811.719 868.057 813.844 868.057 816.344C868.057 818.906 867.151 821.094 865.339 822.906ZM914.149 821.781H926.43V848.031H949.774V858.438H926.43V921.062C926.43 927.25 927.68 931.75 930.18 934.562C932.68 937.312 936.774 938.688 942.461 938.688C945.274 938.688 947.711 938.594 949.774 938.406V948.906C947.274 949.344 944.399 949.562 941.149 949.562C931.461 949.562 924.524 947.594 920.336 943.656C916.211 939.656 914.149 933.062 914.149 923.875V858.438H897.649V848.031H914.149V821.781Z" fill="black"/>
<path d="M268.329 603.23V679.527H314.634C327.769 679.527 337.975 676.181 345.253 669.488C352.615 662.795 356.296 653.425 356.296 641.378C356.296 629.499 352.532 620.171 345.003 613.395C337.473 606.618 327.1 603.23 313.881 603.23H268.329ZM268.329 694.836V769H251.137V587.92H316.015C333.667 587.92 347.721 592.731 358.179 602.352C368.636 611.889 373.865 624.73 373.865 640.876C373.865 653.676 370.435 664.636 363.575 673.754C356.715 682.79 347.219 688.897 335.089 692.076L379.01 769H358.932L317.27 694.836H314.634H268.329ZM519.823 721.942H537.14C538.311 732.316 543.582 740.765 552.952 747.291C562.405 753.816 574.034 757.079 587.837 757.079C601.306 757.079 612.433 753.732 621.217 747.04C630.001 740.347 634.394 731.939 634.394 721.816C634.394 713.283 631.131 706.172 624.605 700.483C618.164 694.795 607.957 690.235 593.986 686.805L573.281 681.535C556.298 677.352 544 671.537 536.387 664.092C528.774 656.562 524.968 646.649 524.968 634.351C524.968 619.627 530.698 607.58 542.16 598.21C553.705 588.841 568.638 584.156 586.959 584.156C604.193 584.156 618.624 588.715 630.252 597.834C641.881 606.869 648.155 618.33 649.076 632.218H631.758C630.336 622.513 625.526 614.691 617.327 608.751C609.212 602.812 598.922 599.842 586.457 599.842C573.49 599.842 562.907 603.063 554.708 609.504C546.594 615.862 542.536 623.977 542.536 633.849C542.536 641.713 545.548 648.155 551.571 653.174C557.595 658.11 567.508 662.293 581.312 665.723L599.257 670.241C617.913 674.842 631.34 681.075 639.539 688.938C647.821 696.719 651.962 707.051 651.962 719.934C651.962 735.746 645.938 748.504 633.892 758.208C621.928 767.912 606.075 772.765 586.332 772.765C567.592 772.765 552.073 768.08 539.775 758.71C527.561 749.34 520.91 737.084 519.823 721.942ZM820.382 587.92V705.126C820.382 720.436 825.151 732.818 834.688 742.271C844.225 751.724 857.109 756.451 873.338 756.451C889.568 756.451 902.452 751.724 911.989 742.271C921.526 732.818 926.294 720.436 926.294 705.126V587.92H943.486V706.256C943.486 726.083 937.17 742.062 924.538 754.192C911.905 766.239 894.839 772.263 873.338 772.263C851.922 772.263 834.897 766.239 822.265 754.192C809.632 742.062 803.316 726.083 803.316 706.256V587.92H820.382Z" fill="black"/>
<path d="M926 588H943.5V609.026L926 609V588Z" fill="#8BBBDF"/>
<path d="M519.513 721.411H536.799C538.075 730.201 540.453 734.551 546.365 741.738L532.939 752.478C524.884 744.423 519.513 733.683 519.513 721.411Z" fill="#CAD201"/>
<path d="M251 742H268.338V769H251V742Z" fill="#E2174C"/>
<path d="M348.222 595.055L345.537 613.851C336.668 606.714 326.5 603.5 316 603.111L316 588C330.5 588 340 590.5 348.222 595.055Z" fill="#25648F"/>
<path d="M549.5 848H561.5V866.5H549.5V848Z" fill="#8BBBDF"/>
<circle cx="859" cy="816" r="10" fill="#FB0B6C"/>
<path d="M200.322 1044.95C194.102 1044.95 189.182 1042.82 185.564 1038.54C181.946 1034.27 180.137 1028.46 180.137 1021.12C180.137 1013.77 181.946 1007.97 185.564 1003.69C189.182 999.397 194.091 997.25 200.291 997.25C203.401 997.25 206.268 997.895 208.892 999.186C211.536 1000.46 213.705 1002.23 215.398 1004.52C217.112 1006.78 218.17 1009.34 218.572 1012.2H214.16C213.504 1008.96 211.886 1006.34 209.304 1004.33C206.744 1002.3 203.739 1001.28 200.291 1001.28C195.487 1001.28 191.668 1003.08 188.833 1006.68C185.998 1010.25 184.58 1015.07 184.58 1021.12C184.58 1027.19 185.998 1032.01 188.833 1035.59C191.668 1039.14 195.498 1040.92 200.322 1040.92C203.856 1040.92 206.882 1040.01 209.399 1038.19C211.938 1036.37 213.525 1033.96 214.16 1030.96H218.572C217.916 1035.17 215.916 1038.55 212.573 1041.11C209.251 1043.67 205.168 1044.95 200.322 1044.95ZM255.535 1009.82V1013.34H243.856V1044H239.698V1013.34H228.018V1009.82H255.535ZM283.485 1009.25C287.823 1009.25 291.304 1010.87 293.927 1014.1C296.551 1017.32 297.863 1021.58 297.863 1026.89C297.863 1032.2 296.54 1036.48 293.896 1039.72C291.272 1042.95 287.802 1044.57 283.485 1044.57C280.841 1044.57 278.492 1043.95 276.44 1042.7C274.408 1041.43 272.917 1039.69 271.964 1037.49H271.584V1055.33H267.426V1009.82H271.393V1016.8H271.774C272.832 1014.45 274.398 1012.61 276.471 1011.28C278.545 1009.92 280.883 1009.25 283.485 1009.25ZM282.565 1040.79C285.95 1040.79 288.627 1039.55 290.595 1037.05C292.584 1034.55 293.578 1031.18 293.578 1026.92C293.578 1022.65 292.584 1019.27 290.595 1016.77C288.627 1014.25 285.961 1012.99 282.597 1012.99C279.254 1012.99 276.556 1014.26 274.504 1016.8C272.472 1019.34 271.457 1022.7 271.457 1026.89C271.457 1031.08 272.472 1034.45 274.504 1036.99C276.535 1039.52 279.222 1040.79 282.565 1040.79ZM336.255 1039.84C333.462 1042.99 329.674 1044.57 324.892 1044.57C320.111 1044.57 316.323 1042.99 313.53 1039.84C310.758 1036.67 309.372 1032.35 309.372 1026.89C309.372 1021.43 310.758 1017.13 313.53 1013.98C316.323 1010.82 320.111 1009.25 324.892 1009.25C329.674 1009.25 333.462 1010.82 336.255 1013.98C339.048 1017.13 340.444 1021.43 340.444 1026.89C340.444 1032.35 339.048 1036.67 336.255 1039.84ZM316.641 1037.11C318.629 1039.57 321.38 1040.79 324.892 1040.79C328.405 1040.79 331.156 1039.57 333.144 1037.11C335.133 1034.64 336.128 1031.23 336.128 1026.89C336.128 1022.56 335.133 1019.16 333.144 1016.71C331.156 1014.23 328.405 1012.99 324.892 1012.99C321.38 1012.99 318.629 1014.23 316.641 1016.71C314.652 1019.16 313.657 1022.56 313.657 1026.89C313.657 1031.23 314.652 1034.64 316.641 1037.11ZM357.762 1044H353.604V1009.82H357.762V1037.3H358.174L377.154 1009.82H381.312V1044H377.154V1016.51H376.773L357.762 1044ZM420.719 1009.82V1013.34H409.04V1044H404.882V1013.34H393.202V1009.82H420.719ZM445.654 1012.93C442.544 1012.93 439.994 1014 438.005 1016.13C436.016 1018.25 434.927 1021.06 434.736 1024.58H456.033C455.99 1021.04 455.017 1018.22 453.113 1016.1C451.229 1013.99 448.743 1012.93 445.654 1012.93ZM455.62 1035.56H459.841C458.995 1038.35 457.323 1040.55 454.826 1042.16C452.33 1043.77 449.293 1044.57 445.718 1044.57C441.02 1044.57 437.296 1042.98 434.546 1039.81C431.795 1036.62 430.42 1032.32 430.42 1026.92C430.42 1021.55 431.795 1017.27 434.546 1014.07C437.318 1010.85 441.031 1009.25 445.686 1009.25C450.235 1009.25 453.821 1010.76 456.445 1013.79C459.069 1016.81 460.381 1020.94 460.381 1026.16V1028H434.704V1028.19C434.81 1032.07 435.858 1035.15 437.846 1037.43C439.857 1039.72 442.512 1040.86 445.813 1040.86C448.225 1040.86 450.277 1040.4 451.97 1039.49C453.663 1038.56 454.879 1037.25 455.62 1035.56ZM479.444 1029.31C479.254 1031.67 478.978 1033.71 478.619 1035.4C478.28 1037.09 477.772 1038.65 477.095 1040.06C476.418 1041.46 475.519 1042.52 474.398 1043.24C473.276 1043.94 471.922 1044.29 470.335 1044.29C469.637 1044.29 469.002 1044.18 468.431 1043.97V1040.13C468.939 1040.3 469.51 1040.38 470.145 1040.38C471.012 1040.38 471.763 1040.12 472.398 1039.59C473.054 1039.06 473.583 1038.28 473.985 1037.24C474.387 1036.2 474.704 1035.04 474.937 1033.75C475.17 1032.46 475.35 1030.92 475.477 1029.15C475.561 1028.24 475.783 1025.05 476.143 1019.59C476.524 1014.11 476.746 1010.85 476.81 1009.82H498.677V1044H494.52V1013.34H480.587C480.227 1019.86 479.846 1025.18 479.444 1029.31ZM525.39 1024.99H517.741V1040.48H525.39C527.886 1040.48 529.875 1039.78 531.356 1038.38C532.859 1036.96 533.61 1035.08 533.61 1032.73C533.61 1030.36 532.859 1028.48 531.356 1027.08C529.875 1025.69 527.886 1024.99 525.39 1024.99ZM513.583 1044V1009.82H517.741V1021.43H525.39C529.177 1021.43 532.182 1022.46 534.403 1024.51C536.646 1026.54 537.767 1029.28 537.767 1032.73C537.767 1036.18 536.646 1038.92 534.403 1040.95C532.182 1042.98 529.177 1044 525.39 1044H513.583ZM573.62 1044V1028H554.641V1044H550.483V1009.82H554.641V1024.48H573.62V1009.82H577.778V1044H573.62ZM602.903 1040.89C605.971 1040.89 608.532 1039.97 610.584 1038.13C612.658 1036.27 613.694 1033.98 613.694 1031.27V1027.27L603.57 1028C597.836 1028.41 594.969 1030.56 594.969 1034.48C594.969 1036.43 595.709 1037.98 597.19 1039.14C598.672 1040.31 600.576 1040.89 602.903 1040.89ZM602.205 1044.57C598.82 1044.57 596.048 1043.66 593.89 1041.84C591.753 1040 590.684 1037.57 590.684 1034.54C590.684 1031.58 591.742 1029.25 593.858 1027.56C595.974 1025.85 599.021 1024.85 602.999 1024.58L613.694 1023.88V1020.58C613.694 1018.12 612.964 1016.24 611.504 1014.93C610.066 1013.62 607.96 1012.96 605.188 1012.96C602.84 1012.96 600.861 1013.44 599.253 1014.39C597.667 1015.32 596.672 1016.61 596.27 1018.26H592.049C592.451 1015.55 593.858 1013.37 596.27 1011.72C598.703 1010.07 601.718 1009.25 605.315 1009.25C609.314 1009.25 612.404 1010.24 614.583 1012.23C616.784 1014.2 617.884 1016.97 617.884 1020.55V1044H613.885V1038.13H613.504C612.467 1040.16 610.954 1041.75 608.965 1042.89C606.976 1044.01 604.723 1044.57 602.205 1044.57ZM643.961 1027.56H651.451V1013.34H643.961C641.443 1013.34 639.444 1014 637.963 1015.31C636.482 1016.6 635.741 1018.37 635.741 1020.61C635.741 1022.68 636.492 1024.36 637.994 1025.66C639.497 1026.92 641.486 1027.56 643.961 1027.56ZM651.451 1044V1031.08H644.501L635.201 1044H630.219L640.089 1030.38C637.444 1029.83 635.36 1028.71 633.837 1027.02C632.334 1025.31 631.583 1023.2 631.583 1020.7C631.583 1017.34 632.694 1014.68 634.916 1012.74C637.159 1010.79 640.174 1009.82 643.961 1009.82H655.609V1044H651.451ZM697.163 1028.13H695.83V1044H691.673V1009.82H695.83V1024.8H697.163L712.366 1009.82H717.508L700.655 1026.23L718.269 1044H712.779L697.163 1028.13ZM753.71 1039.84C750.917 1042.99 747.129 1044.57 742.347 1044.57C737.565 1044.57 733.778 1042.99 730.985 1039.84C728.213 1036.67 726.827 1032.35 726.827 1026.89C726.827 1021.43 728.213 1017.13 730.985 1013.98C733.778 1010.82 737.565 1009.25 742.347 1009.25C747.129 1009.25 750.917 1010.82 753.71 1013.98C756.503 1017.13 757.899 1021.43 757.899 1026.89C757.899 1032.35 756.503 1036.67 753.71 1039.84ZM734.095 1037.11C736.084 1039.57 738.835 1040.79 742.347 1040.79C745.86 1040.79 748.61 1039.57 750.599 1037.11C752.588 1034.64 753.583 1031.23 753.583 1026.89C753.583 1022.56 752.588 1019.16 750.599 1016.71C748.61 1014.23 745.86 1012.99 742.347 1012.99C738.835 1012.99 736.084 1014.23 734.095 1016.71C732.106 1019.16 731.112 1022.56 731.112 1026.89C731.112 1031.23 732.106 1034.64 734.095 1037.11ZM775.217 1044H771.059V1009.82H776.074L789.499 1038.22H789.88L803.242 1009.82H808.066V1044H803.908V1017.44H803.432L791.245 1043.33H787.976L775.661 1017.44H775.217V1044ZM845.76 1044V1013.34H827.097V1044H822.94V1009.82H849.917V1044H845.76ZM875.043 1040.89C878.111 1040.89 880.671 1039.97 882.723 1038.13C884.797 1036.27 885.834 1033.98 885.834 1031.27V1027.27L875.709 1028C869.975 1028.41 867.108 1030.56 867.108 1034.48C867.108 1036.43 867.849 1037.98 869.33 1039.14C870.811 1040.31 872.715 1040.89 875.043 1040.89ZM874.344 1044.57C870.959 1044.57 868.187 1043.66 866.029 1041.84C863.892 1040 862.823 1037.57 862.823 1034.54C862.823 1031.58 863.881 1029.25 865.997 1027.56C868.113 1025.85 871.16 1024.85 875.138 1024.58L885.834 1023.88V1020.58C885.834 1018.12 885.104 1016.24 883.644 1014.93C882.205 1013.62 880.1 1012.96 877.328 1012.96C874.979 1012.96 873.001 1013.44 871.393 1014.39C869.806 1015.32 868.811 1016.61 868.409 1018.26H864.188C864.59 1015.55 865.997 1013.37 868.409 1011.72C870.843 1010.07 873.858 1009.25 877.455 1009.25C881.454 1009.25 884.543 1010.24 886.722 1012.23C888.923 1014.2 890.023 1016.97 890.023 1020.55V1044H886.024V1038.13H885.643C884.606 1040.16 883.094 1041.75 881.105 1042.89C879.116 1044.01 876.862 1044.57 874.344 1044.57ZM927.875 1044V1028H908.896V1044H904.738V1009.82H908.896V1024.48H927.875V1009.82H932.033V1044H927.875ZM951.065 1044H946.907V1009.82H951.065V1037.3H951.477L970.457 1009.82H974.614V1044H970.457V1016.51H970.076L951.065 1044ZM1000.88 1027.56H1008.37V1013.34H1000.88C998.364 1013.34 996.365 1014 994.884 1015.31C993.403 1016.6 992.662 1018.37 992.662 1020.61C992.662 1022.68 993.413 1024.36 994.916 1025.66C996.418 1026.92 998.407 1027.56 1000.88 1027.56ZM1008.37 1044V1031.08H1001.42L992.123 1044H987.14L997.01 1030.38C994.365 1029.83 992.281 1028.71 990.758 1027.02C989.256 1025.31 988.504 1023.2 988.504 1020.7C988.504 1017.34 989.615 1014.68 991.837 1012.74C994.08 1010.79 997.095 1009.82 1000.88 1009.82H1012.53V1044H1008.37Z" fill="black"/>
</svg>
