<svg width="1195" height="1026" viewBox="0 0 1195 1026" fill="none" xmlns="http://www.w3.org/2000/svg">
<path d="M599.576 284.384H701.46H749.005V371.98H599.576V284.384Z" fill="#E4E2E7"/>
<path d="M443.344 284.386H599.577V428.662H378.01V284.386H443.344Z" fill="#24658F"/>
<rect x="378.01" y="294.689" width="41.2217" height="77.2906" fill="#CCD200"/>
<rect x="506.828" y="284.384" width="92.7488" height="87.5961" fill="#E4E2E7"/>
<rect x="378.01" y="423.507" width="30.9163" height="61.8325" fill="#E21749"/>
<rect x="702.631" y="284.384" width="103.054" height="87.5961" fill="black"/>
<rect x="805.685" y="284.384" width="25.7635" height="87.5961" fill="#CCD200"/>
<rect x="702.631" y="371.979" width="103.054" height="82.4434" fill="#9BA49F"/>
<rect x="532.591" y="423.507" width="61.8325" height="123.665" transform="rotate(90 532.591 423.507)" fill="#CCD200"/>
<rect x="599.576" y="371.979" width="103.054" height="113.36" fill="#8BBBDF"/>
<rect x="532.591" y="423.507" width="66.9852" height="61.8325" fill="#8BBBDF"/>
<rect x="805.685" y="454.423" width="25.7635" height="30.9163" fill="#E21749"/>
<rect x="805.685" y="371.979" width="25.7635" height="82.4434" fill="black"/>
<rect x="702.631" y="485.339" width="30.9163" height="103.054" transform="rotate(-90 702.631 485.339)" fill="black"/>
<rect x="625.34" y="361.675" width="41.2217" height="10.3054" fill="#CCD200"/>
<rect x="687.173" y="294.69" width="15.4581" height="15.4581" fill="#E21749"/>
<path d="M856.416 236.226L903.587 191.635V284.384H805.685L856.416 236.226Z" fill="#CCD200"/>
<path d="M935.861 221.362L903.587 191.635V253.468H970.572L935.861 221.362Z" fill="#24658F"/>
<path d="M903.586 253.468H970.572L1001.49 283.173V402.896H903.586V253.468Z" fill="#E4E2E7"/>
<path d="M845.453 284.384H903.586V444.118H821.143V327.53L821.143 284.384H845.453Z" fill="#24658F"/>
<rect x="843.808" y="346.719" width="61.3122" height="55.9023" fill="#E4E2E7"/>
<rect x="970.572" y="341.064" width="61.8325" height="61.8325" fill="black"/>
<rect x="996.538" y="206.075" width="28.5792" height="37.7246" fill="black"/>
<rect x="1032.4" y="341.064" width="15.4581" height="61.8325" fill="#CCD200"/>
<path d="M996.538 243.799H1025.12V306.779L1047.98 327.472V340.968H996.538V243.799Z" fill="#8BBBDF"/>
<rect x="970.572" y="402.896" width="61.8325" height="61.8325" fill="#9BA49F"/>
<rect x="903.586" y="402.896" width="66.9852" height="82.4434" fill="#8BBBDF"/>
<rect x="831.448" y="444.118" width="72.1379" height="41.2217" fill="#8BBBDF"/>
<rect x="1032.4" y="464.729" width="15.4581" height="20.6108" fill="#E21749"/>
<rect x="1032.4" y="402.896" width="15.4581" height="61.8325" fill="black"/>
<rect x="970.572" y="485.34" width="20.6108" height="61.8325" transform="rotate(-90 970.572 485.34)" fill="black"/>
<rect x="259.111" y="0.985352" width="71.7807" height="135.286" fill="black"/>
<path d="M259.111 136.274H330.891V361.751L388.316 435.836V484.152H259.111V136.274Z" fill="#8BBBDF"/>
<rect x="146.139" y="0.986816" width="71.7807" height="135.286" fill="black"/>
<path d="M146.138 136.274H217.919V361.751L275.344 435.836V484.152H146.138V136.274Z" fill="#8BBBDF"/>
<line x1="383.315" y1="480.188" x2="383.315" y2="289.537" stroke="black" stroke-width="10"/>
<line x1="779.921" y1="289.385" x2="378.01" y2="289.385" stroke="black" stroke-width="10"/>
<line x1="620.34" y1="423.508" x2="620.34" y2="310.148" stroke="black" stroke-width="10"/>
<line x1="671.867" y1="423.508" x2="671.867" y2="310.148" stroke="black" stroke-width="10"/>
<line x1="388.469" y1="279.232" x2="388.469" y2="238.01" stroke="black" stroke-width="10"/>
<line x1="831.449" y1="243.01" x2="393.468" y2="243.01" stroke="black" stroke-width="10"/>
<line x1="826.143" y1="238.01" x2="826.143" y2="485.34" stroke="black" stroke-width="10"/>
<line x1="831.448" y1="480.035" x2="146.138" y2="480.035" stroke="black" stroke-width="10"/>
<rect x="424.232" y="335.759" width="77.5961" height="31.2217" stroke="black" stroke-width="10"/>
<rect x="5" y="-5" width="118.818" height="51.8325" transform="matrix(1 0 0 -1 403.774 475.34)" stroke="black" stroke-width="10"/>
<rect x="444.996" y="258.621" width="15.4581" height="15.4581" fill="black"/>
<rect x="475.912" y="258.621" width="15.4581" height="15.4581" fill="black"/>
<rect x="506.828" y="258.621" width="15.4581" height="15.4581" fill="black"/>
<rect x="537.744" y="258.621" width="15.4581" height="15.4581" fill="black"/>
<rect x="568.66" y="258.621" width="15.4581" height="15.4581" fill="black"/>
<rect x="599.577" y="258.621" width="15.4581" height="15.4581" fill="black"/>
<rect x="630.493" y="258.621" width="15.4581" height="15.4581" fill="black"/>
<rect x="661.409" y="258.621" width="15.4581" height="15.4581" fill="black"/>
<rect x="692.325" y="258.621" width="15.4581" height="15.4581" fill="black"/>
<rect x="723.242" y="258.621" width="15.4581" height="15.4581" fill="black"/>
<rect x="496.522" y="181.331" width="15.4581" height="61.8325" fill="black"/>
<rect x="558.355" y="181.331" width="15.4581" height="61.8325" fill="black"/>
<rect x="620.188" y="181.331" width="15.4581" height="61.8325" fill="black"/>
<rect x="682.02" y="181.331" width="15.4581" height="61.8325" fill="black"/>
<rect x="754.158" y="258.621" width="15.4581" height="15.4581" fill="black"/>
<rect x="785.074" y="258.621" width="15.4581" height="15.4581" fill="black"/>
<path d="M381.945 883H369.945V772.656H369.008L322.32 882.344H311.164L264.476 772.656H263.633V883H251.539V747.719H266.258L316.226 865.469H317.351L367.133 747.719H381.945V883ZM500.13 870.719C491.88 880.031 480.693 884.688 466.568 884.688C452.443 884.688 441.255 880.031 433.005 870.719C424.818 861.344 420.724 848.594 420.724 832.469C420.724 816.344 424.818 803.625 433.005 794.312C441.255 785 452.443 780.344 466.568 780.344C480.693 780.344 491.88 785 500.13 794.312C508.38 803.625 512.505 816.344 512.505 832.469C512.505 848.594 508.38 861.344 500.13 870.719ZM442.193 862.656C448.068 869.906 456.193 873.531 466.568 873.531C476.943 873.531 485.068 869.906 490.943 862.656C496.818 855.344 499.755 845.281 499.755 832.469C499.755 819.656 496.818 809.625 490.943 802.375C485.068 795.062 476.943 791.406 466.568 791.406C456.193 791.406 448.068 795.062 442.193 802.375C436.318 809.625 433.38 819.656 433.38 832.469C433.38 845.281 436.318 855.344 442.193 862.656ZM549.596 883V782.031H561.315V800.219H562.534C565.221 793.906 569.346 789.031 574.909 785.594C580.471 782.094 587.221 780.344 595.159 780.344C606.409 780.344 615.096 783.594 621.221 790.094C627.409 796.531 630.503 805.625 630.503 817.375V883H618.221V820.469C618.221 801.094 609.44 791.406 591.878 791.406C582.94 791.406 575.69 794.312 570.128 800.125C564.628 805.875 561.878 813.5 561.878 823V883H549.596ZM746.25 870.719C738 880.031 726.812 884.688 712.688 884.688C698.562 884.688 687.375 880.031 679.125 870.719C670.938 861.344 666.844 848.594 666.844 832.469C666.844 816.344 670.938 803.625 679.125 794.312C687.375 785 698.562 780.344 712.688 780.344C726.812 780.344 738 785 746.25 794.312C754.5 803.625 758.625 816.344 758.625 832.469C758.625 848.594 754.5 861.344 746.25 870.719ZM688.312 862.656C694.188 869.906 702.312 873.531 712.688 873.531C723.062 873.531 731.188 869.906 737.062 862.656C742.938 855.344 745.875 845.281 745.875 832.469C745.875 819.656 742.938 809.625 737.062 802.375C731.188 795.062 723.062 791.406 712.688 791.406C702.312 791.406 694.188 795.062 688.312 802.375C682.438 809.625 679.5 819.656 679.5 832.469C679.5 845.281 682.438 855.344 688.312 862.656ZM796.654 883V741.812H808.935V883H796.654ZM852.776 883V782.031H865.057V883H852.776ZM865.339 756.906C863.526 758.656 861.37 759.531 858.87 759.531C856.37 759.531 854.214 758.625 852.401 756.812C850.651 755 849.776 752.844 849.776 750.344C849.776 747.844 850.651 745.719 852.401 743.969C854.214 742.156 856.37 741.25 858.87 741.25C861.37 741.25 863.526 742.156 865.339 743.969C867.151 745.719 868.057 747.844 868.057 750.344C868.057 752.906 867.151 755.094 865.339 756.906ZM914.149 755.781H926.43V782.031H949.774V792.438H926.43V855.062C926.43 861.25 927.68 865.75 930.18 868.562C932.68 871.312 936.774 872.688 942.461 872.688C945.274 872.688 947.711 872.594 949.774 872.406V882.906C947.274 883.344 944.399 883.562 941.149 883.562C931.461 883.562 924.524 881.594 920.336 877.656C916.211 873.656 914.149 867.062 914.149 857.875V792.438H897.649V782.031H914.149V755.781Z" fill="black"/>
<path d="M268.329 537.23V613.527H314.634C327.769 613.527 337.975 610.181 345.253 603.488C352.615 596.795 356.296 587.425 356.296 575.378C356.296 563.499 352.532 554.171 345.003 547.395C337.473 540.618 327.1 537.23 313.881 537.23H268.329ZM268.329 628.836V703H251.137V521.92H316.015C333.667 521.92 347.721 526.731 358.179 536.352C368.636 545.889 373.865 558.73 373.865 574.876C373.865 587.676 370.435 598.636 363.575 607.754C356.715 616.79 347.219 622.897 335.089 626.076L379.01 703H358.932L317.27 628.836H314.634H268.329ZM519.823 655.942H537.14C538.311 666.316 543.582 674.765 552.952 681.291C562.405 687.816 574.034 691.079 587.837 691.079C601.306 691.079 612.433 687.732 621.217 681.04C630.001 674.347 634.394 665.939 634.394 655.816C634.394 647.283 631.131 640.172 624.605 634.483C618.164 628.795 607.957 624.235 593.986 620.805L573.281 615.535C556.298 611.352 544 605.537 536.387 598.092C528.774 590.562 524.968 580.649 524.968 568.351C524.968 553.627 530.698 541.58 542.16 532.21C553.705 522.841 568.638 518.156 586.959 518.156C604.193 518.156 618.624 522.715 630.252 531.834C641.881 540.869 648.155 552.33 649.076 566.218H631.758C630.336 556.513 625.526 548.691 617.327 542.751C609.212 536.812 598.922 533.842 586.457 533.842C573.49 533.842 562.907 537.063 554.708 543.504C546.594 549.862 542.536 557.977 542.536 567.849C542.536 575.713 545.548 582.155 551.571 587.174C557.595 592.11 567.508 596.293 581.312 599.723L599.257 604.241C617.913 608.842 631.34 615.075 639.539 622.938C647.821 630.719 651.962 641.051 651.962 653.934C651.962 669.746 645.938 682.504 633.892 692.208C621.928 701.912 606.075 706.765 586.332 706.765C567.592 706.765 552.073 702.08 539.775 692.71C527.561 683.34 520.91 671.084 519.823 655.942ZM820.382 521.92V639.126C820.382 654.436 825.151 666.818 834.688 676.271C844.225 685.724 857.109 690.451 873.338 690.451C889.568 690.451 902.452 685.724 911.989 676.271C921.526 666.818 926.294 654.436 926.294 639.126V521.92H943.486V640.256C943.486 660.083 937.17 676.062 924.538 688.192C911.905 700.239 894.839 706.263 873.338 706.263C851.922 706.263 834.897 700.239 822.265 688.192C809.632 676.062 803.316 660.083 803.316 640.256V521.92H820.382Z" fill="black"/>
<path d="M926 522H943.5V543.026L926 543V522Z" fill="#8BBBDF"/>
<path d="M519.513 655.411H536.799C538.075 664.201 540.453 668.551 546.365 675.738L532.939 686.478C524.884 678.423 519.513 667.683 519.513 655.411Z" fill="#CAD201"/>
<path d="M251 676H268.338V703H251V676Z" fill="#E2174C"/>
<path d="M348.222 529.055L345.537 547.851C336.668 540.714 326.5 537.5 316 537.111L316 522C330.5 522 340 524.5 348.222 529.055Z" fill="#25648F"/>
<path d="M549.5 782H561.5V800.5H549.5V782Z" fill="#8BBBDF"/>
<circle cx="859" cy="750" r="10" fill="#FB0B6C"/>
<path d="M200.322 978.952C194.102 978.952 189.182 976.815 185.564 972.541C181.946 968.267 180.137 962.459 180.137 955.117C180.137 947.775 181.946 941.966 185.564 937.692C189.182 933.397 194.091 931.25 200.291 931.25C203.401 931.25 206.268 931.895 208.892 933.186C211.536 934.455 213.705 936.232 215.398 938.518C217.112 940.782 218.17 943.342 218.572 946.198H214.16C213.504 942.961 211.886 940.337 209.304 938.327C206.744 936.296 203.739 935.28 200.291 935.28C195.487 935.28 191.668 937.079 188.833 940.676C185.998 944.252 184.58 949.065 184.58 955.117C184.58 961.189 185.998 966.014 188.833 969.589C191.668 973.144 195.498 974.921 200.322 974.921C203.856 974.921 206.882 974.012 209.399 972.192C211.938 970.372 213.525 967.96 214.16 964.956H218.572C217.916 969.166 215.916 972.552 212.573 975.112C209.251 977.672 205.168 978.952 200.322 978.952ZM255.535 943.818V947.341H243.856V978H239.698V947.341H228.018V943.818H255.535ZM283.485 943.247C287.823 943.247 291.304 944.865 293.927 948.103C296.551 951.319 297.863 955.582 297.863 960.893C297.863 966.204 296.54 970.478 293.896 973.715C291.272 976.953 287.802 978.571 283.485 978.571C280.841 978.571 278.492 977.947 276.44 976.699C274.408 975.429 272.917 973.694 271.964 971.494H271.584V989.331H267.426V943.818H271.393V950.8H271.774C272.832 948.452 274.398 946.611 276.471 945.278C278.545 943.924 280.883 943.247 283.485 943.247ZM282.565 974.794C285.95 974.794 288.627 973.546 290.595 971.049C292.584 968.553 293.578 965.178 293.578 960.925C293.578 956.651 292.584 953.265 290.595 950.769C288.627 948.251 285.961 946.992 282.597 946.992C279.254 946.992 276.556 948.261 274.504 950.8C272.472 953.339 271.457 956.704 271.457 960.893C271.457 965.083 272.472 968.447 274.504 970.986C276.535 973.525 279.222 974.794 282.565 974.794ZM336.255 973.842C333.462 976.995 329.674 978.571 324.892 978.571C320.111 978.571 316.323 976.995 313.53 973.842C310.758 970.668 309.372 966.352 309.372 960.893C309.372 955.434 310.758 951.128 313.53 947.976C316.323 944.823 320.111 943.247 324.892 943.247C329.674 943.247 333.462 944.823 336.255 947.976C339.048 951.128 340.444 955.434 340.444 960.893C340.444 966.352 339.048 970.668 336.255 973.842ZM316.641 971.113C318.629 973.567 321.38 974.794 324.892 974.794C328.405 974.794 331.156 973.567 333.144 971.113C335.133 968.637 336.128 965.231 336.128 960.893C336.128 956.556 335.133 953.16 333.144 950.705C331.156 948.229 328.405 946.992 324.892 946.992C321.38 946.992 318.629 948.229 316.641 950.705C314.652 953.16 313.657 956.556 313.657 960.893C313.657 965.231 314.652 968.637 316.641 971.113ZM357.762 978H353.604V943.818H357.762V971.303H358.174L377.154 943.818H381.312V978H377.154V950.515H376.773L357.762 978ZM420.719 943.818V947.341H409.04V978H404.882V947.341H393.202V943.818H420.719ZM445.654 946.928C442.544 946.928 439.994 947.997 438.005 950.134C436.016 952.25 434.927 955.064 434.736 958.576H456.033C455.99 955.043 455.017 952.218 453.113 950.102C451.229 947.986 448.743 946.928 445.654 946.928ZM455.62 969.558H459.841C458.995 972.351 457.323 974.551 454.826 976.159C452.33 977.767 449.293 978.571 445.718 978.571C441.02 978.571 437.296 976.984 434.546 973.811C431.795 970.616 430.42 966.32 430.42 960.925C430.42 955.55 431.795 951.266 434.546 948.071C437.318 944.855 441.031 943.247 445.686 943.247C450.235 943.247 453.821 944.759 456.445 947.785C459.069 950.811 460.381 954.937 460.381 960.163V962.004H434.704V962.194C434.81 966.066 435.858 969.145 437.846 971.43C439.857 973.715 442.512 974.858 445.813 974.858C448.225 974.858 450.277 974.403 451.97 973.493C453.663 972.562 454.879 971.25 455.62 969.558ZM479.444 963.305C479.254 965.675 478.978 967.706 478.619 969.399C478.28 971.092 477.772 972.647 477.095 974.064C476.418 975.461 475.519 976.519 474.398 977.238C473.276 977.937 471.922 978.286 470.335 978.286C469.637 978.286 469.002 978.18 468.431 977.968V974.128C468.939 974.297 469.51 974.382 470.145 974.382C471.012 974.382 471.763 974.117 472.398 973.588C473.054 973.059 473.583 972.277 473.985 971.24C474.387 970.203 474.704 969.039 474.937 967.749C475.17 966.458 475.35 964.924 475.477 963.146C475.561 962.237 475.783 959.052 476.143 953.593C476.524 948.113 476.746 944.855 476.81 943.818H498.677V978H494.52V947.341H480.587C480.227 953.858 479.846 959.179 479.444 963.305ZM525.39 958.989H517.741V974.477H525.39C527.886 974.477 529.875 973.779 531.356 972.382C532.859 970.965 533.61 969.082 533.61 966.733C533.61 964.363 532.859 962.48 531.356 961.083C529.875 959.687 527.886 958.989 525.39 958.989ZM513.583 978V943.818H517.741V955.434H525.39C529.177 955.434 532.182 956.46 534.403 958.513C536.646 960.544 537.767 963.284 537.767 966.733C537.767 970.182 536.646 972.922 534.403 974.953C532.182 976.984 529.177 978 525.39 978H513.583ZM573.62 978V962.004H554.641V978H550.483V943.818H554.641V958.481H573.62V943.818H577.778V978H573.62ZM602.903 974.89C605.971 974.89 608.532 973.969 610.584 972.128C612.658 970.266 613.694 967.981 613.694 965.273V961.274L603.57 962.004C597.836 962.406 594.969 964.564 594.969 968.479C594.969 970.425 595.709 971.98 597.19 973.144C598.672 974.308 600.576 974.89 602.903 974.89ZM602.205 978.571C598.82 978.571 596.048 977.661 593.89 975.842C591.753 974.001 590.684 971.568 590.684 968.542C590.684 965.58 591.742 963.252 593.858 961.56C595.974 959.846 599.021 958.851 602.999 958.576L613.694 957.878V954.577C613.694 952.123 612.964 950.24 611.504 948.928C610.066 947.616 607.96 946.96 605.188 946.96C602.84 946.96 600.861 947.436 599.253 948.388C597.667 949.319 596.672 950.61 596.27 952.26H592.049C592.451 949.552 593.858 947.373 596.27 945.722C598.703 944.072 601.718 943.247 605.315 943.247C609.314 943.247 612.404 944.241 614.583 946.23C616.784 948.198 617.884 950.97 617.884 954.545V978H613.885V972.128H613.504C612.467 974.16 610.954 975.747 608.965 976.889C606.976 978.011 604.723 978.571 602.205 978.571ZM643.961 961.56H651.451V947.341H643.961C641.443 947.341 639.444 947.997 637.963 949.309C636.482 950.599 635.741 952.366 635.741 954.609C635.741 956.682 636.492 958.365 637.994 959.655C639.497 960.925 641.486 961.56 643.961 961.56ZM651.451 978V965.083H644.501L635.201 978H630.219L640.089 964.384C637.444 963.834 635.36 962.713 633.837 961.02C632.334 959.306 631.583 957.201 631.583 954.704C631.583 951.34 632.694 948.684 634.916 946.738C637.159 944.791 640.174 943.818 643.961 943.818H655.609V978H651.451ZM697.163 962.131H695.83V978H691.673V943.818H695.83V958.798H697.163L712.366 943.818H717.508L700.655 960.227L718.269 978H712.779L697.163 962.131ZM753.71 973.842C750.917 976.995 747.129 978.571 742.347 978.571C737.565 978.571 733.778 976.995 730.985 973.842C728.213 970.668 726.827 966.352 726.827 960.893C726.827 955.434 728.213 951.128 730.985 947.976C733.778 944.823 737.565 943.247 742.347 943.247C747.129 943.247 750.917 944.823 753.71 947.976C756.503 951.128 757.899 955.434 757.899 960.893C757.899 966.352 756.503 970.668 753.71 973.842ZM734.095 971.113C736.084 973.567 738.835 974.794 742.347 974.794C745.86 974.794 748.61 973.567 750.599 971.113C752.588 968.637 753.583 965.231 753.583 960.893C753.583 956.556 752.588 953.16 750.599 950.705C748.61 948.229 745.86 946.992 742.347 946.992C738.835 946.992 736.084 948.229 734.095 950.705C732.106 953.16 731.112 956.556 731.112 960.893C731.112 965.231 732.106 968.637 734.095 971.113ZM775.217 978H771.059V943.818H776.074L789.499 972.224H789.88L803.242 943.818H808.066V978H803.908V951.435H803.432L791.245 977.333H787.976L775.661 951.435H775.217V978ZM845.76 978V947.341H827.097V978H822.94V943.818H849.917V978H845.76ZM875.043 974.89C878.111 974.89 880.671 973.969 882.723 972.128C884.797 970.266 885.834 967.981 885.834 965.273V961.274L875.709 962.004C869.975 962.406 867.108 964.564 867.108 968.479C867.108 970.425 867.849 971.98 869.33 973.144C870.811 974.308 872.715 974.89 875.043 974.89ZM874.344 978.571C870.959 978.571 868.187 977.661 866.029 975.842C863.892 974.001 862.823 971.568 862.823 968.542C862.823 965.58 863.881 963.252 865.997 961.56C868.113 959.846 871.16 958.851 875.138 958.576L885.834 957.878V954.577C885.834 952.123 885.104 950.24 883.644 948.928C882.205 947.616 880.1 946.96 877.328 946.96C874.979 946.96 873.001 947.436 871.393 948.388C869.806 949.319 868.811 950.61 868.409 952.26H864.188C864.59 949.552 865.997 947.373 868.409 945.722C870.843 944.072 873.858 943.247 877.455 943.247C881.454 943.247 884.543 944.241 886.722 946.23C888.923 948.198 890.023 950.97 890.023 954.545V978H886.024V972.128H885.643C884.606 974.16 883.094 975.747 881.105 976.889C879.116 978.011 876.862 978.571 874.344 978.571ZM927.875 978V962.004H908.896V978H904.738V943.818H908.896V958.481H927.875V943.818H932.033V978H927.875ZM951.065 978H946.907V943.818H951.065V971.303H951.477L970.457 943.818H974.614V978H970.457V950.515H970.076L951.065 978ZM1000.88 961.56H1008.37V947.341H1000.88C998.364 947.341 996.365 947.997 994.884 949.309C993.403 950.599 992.662 952.366 992.662 954.609C992.662 956.682 993.413 958.365 994.916 959.655C996.418 960.925 998.407 961.56 1000.88 961.56ZM1008.37 978V965.083H1001.42L992.123 978H987.14L997.01 964.384C994.365 963.834 992.281 962.713 990.758 961.02C989.256 959.306 988.504 957.201 988.504 954.704C988.504 951.34 989.615 948.684 991.837 946.738C994.08 944.791 997.095 943.818 1000.88 943.818H1012.53V978H1008.37Z" fill="black"/>
</svg>
