<svg width="93" height="77" viewBox="0 0 93 77" fill="none" xmlns="http://www.w3.org/2000/svg">
<path d="M0.592658 35.5L41.1443 3.86084C44.0495 1.59412 48.1272 1.60506 51.0203 3.88734L91.0927 35.5C93.5927 37.5 90.5927 41 88.0927 39L48.5314 8.85809C47.0926 7.76185 45.0971 7.76762 43.6647 8.87216L4.59266 39C2.09277 41 -1.40735 37.5 0.592658 35.5Z" fill="white"/>
<path d="M65 13C65 11.8954 65.8954 11 67 11H76C77.1046 11 78 11.8954 78 13V24.5372C78 26.0765 76.3339 27.0388 75.0006 26.2696L66.0006 21.0772C65.3814 20.7201 65 20.0596 65 19.3449V13Z" fill="white"/>
<path d="M14 41L42.179 18.8903C44.7158 16.8999 48.2842 16.8999 50.821 18.8903L79 41V69C79 73.4183 75.4183 77 71 77H56V57C56 53.6863 53.3137 51 50 51H42C38.6863 51 36 53.6863 36 57V77H22C17.5817 77 14 73.4183 14 69V41Z" fill="white"/>
</svg>
